<?xml version="1.0" encoding="UTF-8" standalone="no"?>
<svg
   version="1.1"
   id="Layer_1"
   x="0px"
   y="0px"
   width="100%"
   viewBox="0 0 1024 1024"
   enable-background="new 0 0 1024 1024"
   xml:space="preserve"
   sodipodi:docname="app-logo.svg"
   inkscape:version="1.2.2 (b0a8486541, 2022-12-01)"
   xmlns:inkscape="http://www.inkscape.org/namespaces/inkscape"
   xmlns:sodipodi="http://sodipodi.sourceforge.net/DTD/sodipodi-0.dtd"
   xmlns="http://www.w3.org/2000/svg"
   xmlns:svg="http://www.w3.org/2000/svg"><defs
   id="defs19"><clipPath
     clipPathUnits="userSpaceOnUse"
     id="clipPath2669"><ellipse
       style="fill:none;stroke:#ffffff;stroke-width:1.457;stroke-opacity:1"
       id="ellipse2671"
       cx="506.50443"
       cy="526.53363"
       rx="346.98346"
       ry="275.19376" /></clipPath><clipPath
     clipPathUnits="userSpaceOnUse"
     id="clipPath3435"><ellipse
       style="fill:none;stroke:#ffffff;stroke-width:1.6074;stroke-opacity:1"
       id="ellipse3437"
       cx="507.01459"
       cy="527.45471"
       rx="349.40091"
       ry="277.1127" /></clipPath></defs><sodipodi:namedview
   id="namedview17"
   pagecolor="#ffffff"
   bordercolor="#000000"
   borderopacity="0.25"
   inkscape:showpageshadow="2"
   inkscape:pageopacity="1"
   inkscape:pagecheckerboard="0"
   inkscape:deskcolor="#d1d1d1"
   showgrid="false"
   inkscape:zoom="0.70917839"
   inkscape:cx="382.83738"
   inkscape:cy="588.00438"
   inkscape:window-width="2560"
   inkscape:window-height="1356"
   inkscape:window-x="1080"
   inkscape:window-y="240"
   inkscape:window-maximized="1"
   inkscape:current-layer="Layer_1"
   inkscape:lockguides="true" />







<g
   id="g2648"
   transform="matrix(1.4150079,0,0,1.4150079,-205.19183,-233.14354)"
   clip-path="url(#clipPath3435)"
   inkscape:export-filename="g2648.svg"
   inkscape:export-xdpi="96"
   inkscape:export-ydpi="96"><ellipse
     style="fill:#000000;stroke:#000000;stroke-width:1.6074;stroke-opacity:1"
     id="path3331"
     cx="508.01172"
     cy="526.45758"
     rx="349.40091"
     ry="277.1127"
     transform="translate(-0.99707887,-0.99707887)" /><ellipse
     style="fill:#ffffff;stroke:#ffffff;stroke-width:1.52759;stroke-opacity:1"
     id="path3354"
     cx="510.00586"
     cy="524.46344"
     rx="268.67749"
     ry="163.48566" /><path
     fill="#000000"
     opacity="1"
     stroke="none"
     d="m 630.2671,696.54537 c -156.91159,13.6442 -5.20178,1.0143 -104.54766,9.2915 -152.73674,-14.8467 -86.29826,-7.742 -125.42133,-11.5453 -39.81659,-11.7232 -55.1378,-18.7814 -82.52269,-28.6908 -57.90189,-42.9435 -39.36701,-28.8476 -49.45574,-38.8232 -30.09069,-40.3263 -16.63422,-11.6284 -30.39726,-42.9315 -8.59218,-44.8665 6.96243,-20.9069 -6.74697,-67.6624 11.10384,-53.272 5.11215,-19.8058 11.05565,-47.5472 49.8013,-63.12161 28.17622,-33.1331 54.43911,-69.64117 3.43425,-1.26794 31.41084,-18.52254 33.61366,-21.7061 133.57868,-31.62603 196.45424,-20.45769 274.23819,-20.54843 4.404,2.86398 37.44479,-4.82219 41.20379,-1.07738 8.002,7.97171 13.99543,-0.62475 22.48983,6.5684 7.66806,6.90401 27.23676,24.48558 30.0522,35.64077 9.2641,4.09198 19.96217,12.79731 25.93337,21.89561 3.3491,5.103 27.99611,7.2111 32.26171,11.0139 52.15518,66.0374 -12.11118,-22.6926 38.18124,48.6523 0.0483,85.5505 -22.06458,135.3067 -23.96291,139.6924 -90.57007,76.1262 -18.11063,20.3222 -63.76978,52.0645 M 382.9112,486.06157 c 0.61597,35.9752 0.78457,71.9514 0.0358,107.926 -0.0641,3.0801 -0.34976,5.4763 3.49911,5.7211 19.39998,1.234 38.41619,5.0272 56.85767,11.994 23.3279,8.8129 44.51312,21.5517 60.71318,43.1481 0.42764,0.5702 0.85098,1.4224 1.82111,0.8243 0.0381,-0.4644 0.11436,-0.9526 0.11291,-1.4404 -0.0948,-31.8209 -0.20187,-63.6418 -0.28652,-95.4628 -0.008,-2.9265 -0.62924,-6.3813 3.61789,-6.2666 4.38038,0.1182 2.84072,3.9236 2.84728,6.289 0.0779,28.1561 -0.0241,56.3128 0.0289,84.4691 0.008,4.4203 -1.22369,8.8199 -0.3444,13.386 2.11459,-0.5817 2.88834,-2.5339 4.00618,-3.9668 4.89604,-6.2757 10.13144,-12.133 16.16428,-17.0258 28.88717,-23.4283 61.71047,-33.4762 96.72507,-35.9312 6.34068,-0.4446 6.45504,-0.3011 6.45586,-7.374 0.007,-64.3108 0.013,-128.6217 0.0194,-192.93251 2.1e-4,-1.99923 -0.0575,-4.00134 0.017,-5.99707 0.11193,-2.99634 -1.1323,-4.33978 -3.74342,-4.08902 -2.93954,0.28235 -5.87616,0.60483 -8.81239,0.92896 -18.72664,2.06717 -37.1812,5.66275 -54.76107,13.50036 -18.94616,8.44668 -36.01699,20.06718 -48.97517,38.29808 -4.46722,6.285 -7.25713,13.052 -6.79771,21.503 0.47833,8.7982 0.14368,17.6532 0.14173,26.4833 -5.4e-4,2.5839 0.004,5.2314 -3.30069,5.1721 -3.24442,-0.058 -3.25897,-2.6527 -3.26368,-5.2596 -0.0159,-8.8301 -0.40405,-17.6852 0.0617,-26.483 0.41689,-7.8754 -1.98489,-14.3295 -5.99491,-20.3275 -8.43102,-12.6107 -19.3136,-21.9597 -31.48434,-29.4765 -25.14226,-15.52819 -52.71429,-20.92437 -80.74804,-24.38186 -4.24533,-0.52362 -4.89552,1.89865 -4.87652,5.90326 0.1421,29.9764 0.16211,59.9536 0.26384,90.868 m 18.63781,157.638 c 10.20407,0.039 20.37456,0.9075 30.50506,2.1025 13.09983,1.5454 25.9498,4.6078 38.47297,9.3097 2.90416,1.0903 4.60259,3.034 5.48866,6.4701 1.63218,6.3299 4.10873,8.3302 10.00163,8.4442 14.78333,0.286 29.56969,0.3769 44.35267,0.6793 5.42519,0.111 9.24093,-2.3885 10.83732,-8.2111 1.33714,-4.8774 4.23913,-7.141 8.34782,-8.6018 19.33548,-6.8748 39.2422,-9.6118 59.3801,-10.0671 19.36793,-0.4379 38.74962,-0.099 58.1253,-0.1008 6.80437,-8e-4 8.87225,-2.1443 8.87524,-9.623 0.0286,-72.1506 0.006,-144.3012 0.0789,-216.4517 0.004,-4.4424 -1.33434,-7.4094 -5.14981,-8.7108 -3.12038,-1.0642 -5.01869,0.4672 -4.75735,4.1428 0.97108,13.6612 -0.10358,27.3047 -0.10873,40.9555 -0.0217,57.4872 -0.0145,114.9743 -0.0204,172.4615 -8.8e-4,8.5025 -0.007,8.4819 -7.35074,8.4833 -14.03994,0 -28.06043,-0.7535 -42.12405,-0.1586 -23.58838,0.9981 -46.81036,3.8355 -69.27029,12.5903 -5.48229,2.1369 -9.8444,5.215 -11.9812,11.5302 -0.80844,2.3894 -2.15663,3.7143 -4.68811,3.581 -14.33732,-0.754 -28.6829,-0.4197 -43.02488,-0.1389 -2.64037,0.052 -4.64482,-0.5933 -5.43117,-3.7939 -1.3596,-5.5338 -5.04735,-8.4105 -9.51504,-10.3062 -16.02269,-6.7985 -32.70291,-10.2244 -49.67936,-11.8647 -21.24615,-2.0529 -42.55207,-1.5567 -63.84481,-1.3916 -7.07355,0.055 -7.08328,0.072 -7.08333,-7.9354 -4.1e-4,-70.8175 0.0122,-141.635 -0.0347,-212.4524 -0.002,-2.3932 1.07739,-6.0381 -2.68853,-6.0822 -3.1662,-0.037 -5.70068,1.7629 -6.46929,5.6007 -0.22424,1.1196 -0.16996,2.3212 -0.16984,3.4852 0.007,72.3163 0.0131,144.6326 0.0514,216.9489 0.004,7.1274 1.85741,9.0844 8.29235,9.0919 16.56551,0.019 33.13099,0.01 50.58222,0.013 m 253.17307,-126.1907 c 8.9e-4,-34.3281 1.1e-4,-68.6561 0.005,-102.9842 5.4e-4,-3.6555 0.0749,-7.1429 -4.60647,-7.2099 -5.14379,-0.073 -5.77516,0.4078 -5.77885,7.057 -0.0266,47.8256 -0.0169,95.6511 -0.0166,143.4767 1.1e-4,15.1639 -0.0474,30.3281 0.0472,45.4913 0.0244,3.9167 -0.7872,5.973 -4.84446,6.3 -11.62711,0.9369 -23.22827,2.2755 -34.72405,4.6405 -14.64039,3.0118 -28.79551,7.6444 -42.20049,15.0232 8.6148,-2.3918 17.39539,-3.4629 26.16277,-4.6437 20.00494,-2.6945 40.0995,-3.1112 60.20532,-2.7453 4.42974,0.081 5.83249,-1.2741 5.80318,-6.4211 -0.18425,-32.327 -0.0698,-64.6561 -0.0532,-97.9845 m -291.48133,96.8186 c 0.0295,7.4642 0.0306,7.5445 6.53259,7.4288 29.38512,-0.5226 58.62802,0.7552 87.39689,8.4975 -7.5155,-3.9207 -15.25402,-7.1362 -23.12064,-9.965 -17.69874,-6.3644 -36.08244,-8.4493 -54.41407,-10.5934 -6.29784,-0.7367 -6.22042,-0.6563 -6.22473,-8.1782 -0.0359,-62.629 -0.10743,-125.2582 -0.0301,-187.887 0.005,-4.5111 -1.215,-6.2369 -5.24583,-6.3814 -4.27286,-0.1531 -4.97199,2.4417 -4.88059,6.2403 0.0399,1.6642 -0.0127,3.331 -0.0127,4.9967 -3e-4,64.9608 6.5e-4,129.9217 -8.7e-4,195.8417 m 347.37157,-69.8185 c 0.006,-26.4554 0.0161,-52.9107 0.0127,-79.366 -2.3e-4,-1.6607 0.12845,-3.3819 -0.20247,-4.9693 -0.66302,-3.1804 -2.47318,-5.6141 -5.45959,-5.584 -3.14335,0.032 -5.14925,2.2281 -5.48158,5.9536 -0.0885,0.9917 -0.15847,1.9908 -0.15792,2.9864 0.0204,37.1034 0.0359,74.2069 0.0945,111.3102 0.008,5.2617 2.26665,8.6458 5.54339,8.7152 3.22874,0.068 5.62256,-3.4708 5.64542,-8.5959 0.0438,-9.8165 0.008,-19.6334 0.005,-30.4502 m -390.66179,-31.0027 c -0.51969,-14.8117 -0.62637,-29.6203 -0.0567,-44.4377 0.12038,-3.1319 -0.22909,-6.3298 -0.69349,-9.4344 -0.43106,-2.8813 -2.16795,-5.0299 -4.7989,-5.01 -2.73332,0.021 -4.64092,2.0151 -5.28731,5.1232 -0.26673,1.2826 -0.30258,2.6423 -0.32795,3.9697 -0.18453,9.651 -0.45241,19.3022 -0.48245,28.9543 -0.0834,26.8124 -0.0659,53.6253 -0.0808,80.438 -8.3e-4,1.4974 -0.12103,3.0373 0.13843,4.4837 0.60147,3.3531 2.52757,5.1895 5.59149,5.3095 3.07841,0.1207 4.60818,-2.0109 5.12157,-5.0703 0.35359,-2.1071 0.3496,-4.3065 0.36922,-6.4663 0.17244,-18.9799 -0.27257,-37.9666 0.50687,-57.8597 m 430.69611,36.0026 c 0.0178,-24.4955 0.0383,-48.9909 0.0482,-73.4864 7.6e-4,-1.8319 -0.0107,-3.669 -0.12645,-5.4948 -0.21319,-3.3608 -2.17174,-5.1029 -4.83818,-5.6116 -2.5966,-0.4956 -4.61865,0.9746 -5.79218,3.6004 -0.87273,1.9527 -1.1421,4.1053 -1.12341,6.3124 0.14118,16.6489 0.29082,33.2978 0.3742,49.9472 0.0742,14.8297 0.0247,29.6602 0.1187,44.4897 0.0325,5.1284 2.0512,7.6656 5.80106,7.6144 4.31613,-0.059 5.43067,-3.2758 5.46712,-7.3754 0.0563,-6.3316 0.0509,-12.6639 0.0709,-19.9959 m -471.45298,-79.2713 c -0.60614,-4.1168 -2.84025,-6.1561 -6.46096,-5.9421 -3.78856,0.2239 -4.98154,3.4859 -5.06134,6.9552 -0.13745,5.975 0.31723,11.9637 0.32836,17.9471 0.048,25.8065 0.0225,51.6131 0.0344,77.4197 7.8e-4,1.6634 0.0519,3.3298 0.15036,4.9894 0.18349,3.0934 1.86887,4.8406 4.35955,5.5603 2.49862,0.7218 4.20436,-0.9082 5.65743,-2.9393 1.43637,-2.0077 1.11967,-4.422 1.11869,-6.7202 -0.0136,-32.1333 -0.0549,-64.2665 -0.12658,-97.2701 m 19.96223,12.5102 c -1.34554,-2.8376 -3.46004,-4.0617 -6.2464,-3.4871 -2.8914,0.5963 -4.0629,3.1049 -4.62651,6.0003 -0.31284,1.6071 -0.43739,3.2909 -0.43877,4.9403 -0.0168,20.1265 -0.012,40.253 0.044,60.3793 0.005,1.9732 0.27831,3.9691 0.61765,5.9122 0.6482,3.7117 2.72457,6.2253 6.07927,5.9191 3.42499,-0.3127 5.01482,-3.3222 5.01216,-7.0593 -0.017,-23.9469 -0.10182,-47.8938 -0.44141,-72.6048 m 419.97923,63.7253 c 2.2e-4,1.8284 -0.0114,3.6567 0.003,5.4849 0.0544,7.0008 1.97135,10.6125 5.62136,10.612 3.66682,-5e-4 5.71293,-3.6637 5.71574,-10.5637 0.009,-20.9417 -0.0273,-41.8834 -0.0678,-62.8251 -0.004,-1.6567 0.0278,-3.3683 -0.31277,-4.9576 -0.65685,-3.0655 -2.43153,-4.8868 -5.35887,-4.8853 -2.91143,0 -4.77566,1.7608 -5.39133,4.8458 -0.38184,1.9135 -0.29515,3.9642 -0.29381,5.9532 0.0124,18.449 0.0521,36.8979 0.0846,56.3358 m -26.90717,-20.079 c -0.0301,-7.4683 -0.0119,-14.9373 -0.11361,-22.4043 -0.0421,-3.0863 -0.965,-5.7284 -4.23599,-5.74 -3.35666,-0.012 -4.0771,2.807 -4.14374,5.8085 -0.11789,5.3082 -0.0696,10.6216 -0.0515,15.9327 0.0136,3.9815 -0.10109,7.9815 0.20371,11.9378 0.20392,2.647 1.54762,4.7792 4.25664,4.7686 2.75263,-0.011 3.84956,-2.0032 3.95861,-4.8703 0.0568,-1.4918 0.0837,-2.985 0.12585,-5.433 m -356.33205,-22.1894 c -0.40562,-2.5899 -0.36629,-5.6372 -3.54982,-5.9878 -2.41494,-0.2659 -4.22489,1.3526 -4.39446,3.9034 -0.68201,10.2585 -0.91172,20.545 -0.23976,30.8223 0.13081,2.0008 1.21316,3.3666 3.06753,3.6958 2.06192,0.366 3.38706,-0.7673 4.19282,-2.8 0.79697,-2.0106 1.0046,-4.1408 0.99583,-6.3271 -0.03,-7.4762 -0.0276,-14.9526 -0.0722,-23.3066 m 433.17962,4.9197 c -4.6695,-4.4168 -8.8347,-2.9595 -9.5599,3.8164 -0.5762,5.3843 -0.3477,10.9067 -0.1647,16.3545 0.1123,3.3407 2.0097,5.6091 4.9709,6.0318 3.0456,0.435 5.4789,-1.5948 5.9138,-4.6937 0.9756,-6.9529 1.9006,-14.0544 -1.1601,-21.509 m -509.40139,8.6114 c -0.002,-0.8305 0.018,-1.6618 -0.009,-2.4913 -0.18485,-5.6735 -2.39641,-9.0048 -5.8678,-8.8572 -3.38384,0.1438 -5.7997,3.9679 -5.69853,9.215 0.0864,4.4787 0.21075,8.9606 0.47472,13.4294 0.21857,3.7001 2.09665,5.8839 5.42331,5.8409 3.48892,-0.045 5.45156,-2.3071 5.61423,-6.2383 0.13718,-3.3153 0.0491,-6.6425 0.0631,-10.8985 z"
     id="path2"
     inkscape:label="path2"
     style="fill:#000000;stroke-width:0.942145"
     sodipodi:nodetypes="cccccccccccsccscccccsssscssssccssscsssssssssssssssccsssssscssscscssccssccssssscsscscccscssssscscsccccssscsscccsscssccsccsscssssssssccsssssssssccssssssssccssscssscccsccscssccsssssssccssssssccsscscsssssssss" /><path
     fill="#000000"
     opacity="1"
     stroke="none"
     d="m 436.73828,532.45764 c -2.59555,8.04938 -7.99991,12.33728 -15.76932,12.81684 -9.94744,0.61395 -17.94095,-3.1847 -21.0534,-10.2475 -1.01129,-2.29486 -2.89762,-5.43042 0.91232,-6.71503 2.9436,-0.99249 6.63345,-1.97339 8.06085,2.87573 0.96942,3.29334 3.40207,5.18897 6.9336,5.63196 4.94583,0.62036 9.81033,-1.25806 10.61175,-4.60669 1.26801,-5.29828 -2.88031,-7.01385 -6.5368,-8.54272 -3.81732,-1.59613 -7.93503,-2.4585 -11.81607,-3.92133 -5.14148,-1.93787 -8.21097,-5.68951 -8.30622,-11.31683 -0.0976,-5.76959 2.17548,-10.31333 7.53012,-13.0582 9.34965,-4.79266 27.12415,-1.8371 27.38071,12.34198 -3.81454,1.93497 -7.01459,2.76163 -9.86938,-2.11905 -2.81687,-4.81573 -9.00632,-5.69607 -13.05625,-2.57785 -3.61746,2.78525 -3.50506,6.84442 0.62177,8.74692 3.7503,1.72882 7.82132,2.7796 11.78219,4.03033 8.50946,2.68708 12.74918,8.08905 12.57413,16.66144 z"
     id="path4" /><path
     fill="#000000"
     opacity="1"
     stroke="none"
     d="m 621.27466,544.36676 c -4.23975,-1.78333 -7.82562,-0.90625 -11.64038,0.40375 -4.14807,1.42456 -8.28998,0.1242 -11.95819,-2.03144 -3.88684,-2.28411 -4.70099,-6.25128 -4.72113,-10.37988 -0.0197,-4.04211 2.52447,-6.31048 5.90545,-7.86596 4.2201,-1.94147 8.72028,-1.84394 13.22016,-1.83472 1.77453,0.004 4.06848,0.34283 4.3302,-2.1944 0.22522,-2.18317 -1.23017,-3.81299 -3.2099,-4.59912 -2.39838,-0.95245 -4.88001,-0.94128 -7.20911,0.38379 -0.57269,0.32587 -1.07837,0.77515 -1.59644,1.19073 -2.99151,2.39991 -6.2713,4.31299 -9.84454,1.61219 -1.92047,-1.45166 0.89795,-7.29334 4.73078,-9.29859 6.67681,-3.49304 13.55743,-4.1535 20.52636,-0.55505 3.72437,1.92309 6.00232,5.031 6.29309,9.01239 0.56775,7.77399 0.74707,15.58429 0.82965,23.38232 0.0396,3.73975 -3.13342,2.49225 -5.656,2.77399 m -8.97211,-16.01569 c -2.1535,-0.012 -4.29107,-0.0743 -6.37335,0.74213 -2.02313,0.79315 -3.53827,1.92236 -3.43524,4.29578 0.10498,2.41833 1.85669,3.48504 3.88629,3.90747 4.28491,0.89178 7.48126,-0.87262 9.48889,-4.633 1.51965,-2.84643 0.62616,-4.44946 -3.56659,-4.31238 z"
     id="path6" /><path
     fill="#000000"
     opacity="1"
     stroke="none"
     d="m 524.19958,531.4928 c -1.76727,-10.63654 1.02704,-17.43238 8.6615,-21.76322 6.96778,-3.95266 17.18018,-3.2969 23.07904,1.48191 6.18,5.00653 8.9264,13.65564 6.54279,20.6051 -2.68213,7.81982 -10.6228,13.34607 -19.2439,13.39258 -9.19598,0.0496 -15.60901,-4.47589 -19.03943,-13.71637 m 8.53217,-2.85944 c 0.58099,1.19696 1.03131,2.48175 1.76611,3.57532 2.83857,4.22442 8.19251,5.64789 12.81092,3.50439 4.46423,-2.07183 7.26837,-7.81311 6.10718,-12.50403 -1.16358,-4.70031 -5.97797,-8.15686 -10.87848,-7.81042 -6.31934,0.44672 -10.17987,5.25848 -9.80573,13.23474 z"
     id="path8" /><path
     fill="#000000"
     opacity="1"
     stroke="none"
     d="m 467.90662,543.26575 c -4.46091,1.85473 -8.61887,2.39331 -13.03397,1.34552 -7.61316,-1.80677 -13.12814,-6.06256 -14.89539,-13.77503 -1.65951,-7.24218 -0.0597,-14.08722 5.92298,-19.00094 6.39233,-5.25016 13.72119,-6.58002 21.51025,-3.28452 7.3367,3.10407 11.17435,8.97089 11.44153,16.73663 0.27441,7.97602 -3.37079,14.07422 -10.9454,17.97834 m -8.51951,-6.60718 c 7.17707,-1.45447 10.96152,-6.02521 10.21683,-12.33972 -0.60464,-5.12714 -5.10617,-9.00727 -10.35522,-8.92584 -5.83725,0.0905 -10.36994,4.22204 -10.73371,9.78369 -0.37814,5.78241 3.62027,10.33301 10.8721,11.48187 z"
     id="path10" /><path
     fill="#000000"
     opacity="1"
     stroke="none"
     d="m 493.40064,534.85632 c 0.0102,1.96881 -0.0382,3.46723 0.0176,4.96167 0.1037,2.78009 0.35156,5.40619 -3.84295,5.27838 -3.82602,-0.11663 -5.82752,-1.24646 -5.63511,-5.55963 0.40729,-9.13037 0.42536,-18.27759 0.65625,-27.41656 0.0945,-3.73776 2.46805,-5.31073 7.56513,-4.04978 2.9032,0.71823 5.32089,0.39554 8.0835,-0.27057 10.72421,-2.58581 17.62472,2.26697 18.50161,13.32596 0.5365,6.76691 0.20905,13.60456 0.21454,20.4104 0.003,3.45044 -2.62891,3.29877 -4.95508,3.40839 -2.82397,0.13306 -4.9765,-0.66028 -4.98046,-4.04279 -0.006,-5.3208 0.0713,-10.64312 -0.0323,-15.96197 -0.12564,-6.44916 -2.70465,-9.59558 -7.60279,-9.54749 -4.78155,0.047 -7.9786,3.99439 -8.04608,10.01227 -0.0336,2.99262 0.0267,5.98627 0.0561,9.45172 z"
     id="path12" /><path
     fill="#000000"
     opacity="1"
     stroke="none"
     d="m 587.08423,507.56628 c 3.87134,-0.28546 3.42084,2.07975 3.29669,4.29609 -0.12177,2.17315 0.0581,4.03216 -3.11188,4.61114 -7.72113,1.41028 -9.90069,4.39948 -9.93023,12.3139 -0.0149,3.9878 -0.13111,7.98072 0.0283,11.96204 0.12744,3.18274 -1.58796,4.10382 -4.28937,4.02673 -2.71808,-0.0776 -5.4585,-0.0843 -5.39209,-4.07641 0.15491,-9.30304 0.25311,-18.60846 0.22607,-27.91248 -0.0121,-4.18963 2.68116,-5.58215 5.82282,-4.75393 4.5144,1.19018 8.68353,0.42584 13.34967,-0.46708 z"
     id="path14" /></g></svg>
